<svg xmlns="http://www.w3.org/2000/svg" viewBox="0 0 122.868 97.757"><defs><style>.cls-1{fill:#f27961;}</style></defs><title>audio_on</title><g id="Capa_2" data-name="Capa 2"><g id="Capa_1-2" data-name="Capa 1"><path class="cls-1" d="M47.273,1.712,24.729,23.4H6.084A6.084,6.084,0,0,0,0,29.483V68.457A6.083,6.083,0,0,0,6.084,74.54H24.919l22.354,21.5a6.084,6.084,0,0,0,10.3-4.384V6.1A6.084,6.084,0,0,0,47.273,1.712Z"/><path class="cls-1" d="M100.977,91.346a5,5,0,0,1-3.06-8.957,43.927,43.927,0,0,0,14.951-33.535c0-21.581-14.312-32.812-14.921-33.28A5,5,0,0,1,103.982,7.6c.772.581,18.886,14.536,18.886,41.254,0,26.69-18.081,40.868-18.852,41.459A4.976,4.976,0,0,1,100.977,91.346Z"/><path class="cls-1" d="M86.449,81.106a5,5,0,0,1-3.067-8.952A30.584,30.584,0,0,0,93.711,48.885a30.034,30.034,0,0,0-10.3-23.076,5,5,0,0,1,6.042-7.968,40.121,40.121,0,0,1,14.257,31.044A40.687,40.687,0,0,1,89.489,80.073,4.983,4.983,0,0,1,86.449,81.106Z"/><path class="cls-1" d="M71.1,72.427a5,5,0,0,1-3.077-8.945,19.642,19.642,0,0,0,6.546-14.86A19.266,19.266,0,0,0,68.055,33.9a5,5,0,0,1,6.054-7.959,29.356,29.356,0,0,1,10.464,22.68A29.747,29.747,0,0,1,74.144,71.393,4.976,4.976,0,0,1,71.1,72.427Z"/></g></g></svg>