<svg xmlns="http://www.w3.org/2000/svg" viewBox="0 0 44.388 97.228"><defs><style>.cls-1{fill:#f27961;}</style></defs><title>caracola</title><g id="Capa_2" data-name="Capa 2"><g id="Capa_1-2" data-name="Capa 1"><path class="cls-1" d="M42.409,47.3a32.823,32.823,0,0,1-1.8-9.413c0-.025-.006-.047-.007-.071a13.514,13.514,0,0,0-2.975-8.866,10.757,10.757,0,0,0-6.076-3.6c.033-.334.049-.681.049-1.043A8.312,8.312,0,0,0,25.8,16.814a6.677,6.677,0,0,0,.21-1.653,7.866,7.866,0,0,0-4.2-6.894,6.839,6.839,0,0,0-1.529-3.2A7.756,7.756,0,0,1,18.85,1.38,1.5,1.5,0,0,0,16.469.289C13.992,2.1,9.391,9.033,11.064,14.447a13.047,13.047,0,0,0-1.4,1.23,8.732,8.732,0,0,0-2.237,6.146A9.352,9.352,0,0,0,8.89,26.9a10.49,10.49,0,0,0-1.456,1.779,10.35,10.35,0,0,0-.789,9.506,15.235,15.235,0,0,0-2.453,2.463c-5.322,6.934-5.578,14.412-.761,22.226,1.261,2.046,2.576,3.9,3.847,5.7,2.864,4.046,5.568,7.868,6.807,12.8A71.516,71.516,0,0,1,16.009,95.73v.019c0,.026.007.051.009.077a1.361,1.361,0,0,0,.024.213c.009.04.024.078.036.117a1.454,1.454,0,0,0,.051.158c.019.044.044.084.067.126a1.425,1.425,0,0,0,.071.127c.026.038.057.071.086.106s.061.08.1.116.068.056.1.085a1.423,1.423,0,0,0,.12.1,1.717,1.717,0,0,0,.152.083c.034.018.066.039.1.054a1.9,1.9,0,0,0,.585.119h.009a1.511,1.511,0,0,0,.448-.08c.025-.008.05-.014.074-.023a1.527,1.527,0,0,0,.378-.213c.022-.017.042-.034.063-.052a1.526,1.526,0,0,0,.29-.331c.011-.017.019-.036.029-.054a1.488,1.488,0,0,0,.177-.449v0c.574-2.843,2.834-4.707,6.253-7.527A61.967,61.967,0,0,0,38.927,73.744C46.7,61.885,44.517,54.469,42.409,47.3ZM16.574,4.533a9.081,9.081,0,0,0,1.377,2.421,3.876,3.876,0,0,1,.921,1.963c-.009.033-.023.062-.03.1a1.449,1.449,0,0,0-.023.419A3.121,3.121,0,0,1,17.4,11.142a15.7,15.7,0,0,1-3.258,1.679l-.351.143C13.305,10.217,14.985,6.718,16.574,4.533ZM11.78,17.8a8.745,8.745,0,0,1,3.484-2.2,18.484,18.484,0,0,0,3.812-1.975,6.861,6.861,0,0,0,2.147-2.194,5.034,5.034,0,0,1,1.784,3.774c.031,2.036-1.688,4.155-4.715,5.814-.7.383-1.392.751-2.067,1.109a55.035,55.035,0,0,0-4.978,2.862,6.421,6.421,0,0,1-.825-3.184A5.8,5.8,0,0,1,11.78,17.8ZM9.963,30.3c1.394-2.186,4.3-3.729,7.668-5.516.687-.365,1.392-.738,2.1-1.128a13.988,13.988,0,0,0,4.785-4.063,5.315,5.315,0,0,1,4.087,4.717,5.631,5.631,0,0,1-.219,1.714,1.589,1.589,0,0,0-.1.28c-.474,1.15-1.582,2.064-3.987,2.987C18.952,31.337,13.324,33.7,9.134,36.4A7.546,7.546,0,0,1,9.963,30.3ZM9.728,66.846C8.482,65.087,7.2,63.268,5.985,61.3c-4.155-6.74-3.962-12.9.587-18.825,3.454-4.5,14.207-8.628,18.8-10.391,2.642-1.014,4.35-2.225,5.3-3.849a7.668,7.668,0,0,1,4.676,2.651c2.027,2.389,2.715,5.978,1.989,10.38-.913,5.525-4.763,9.206-8.839,13.1-3.324,3.178-6.762,6.464-8.87,10.969-1.814,3.878-2.739,7.557-3.2,13.363C14.919,74.183,12.388,70.606,9.728,66.846ZM36.417,72.1A58.539,58.539,0,0,1,23.326,86.182a46.11,46.11,0,0,0-4.29,3.846c.137-13.572.878-18.229,3.305-23.415,1.871-4,5.1-7.085,8.226-10.073,3.214-3.071,6.506-6.224,8.39-10.39.187.67.38,1.335.573,1.994C41.534,54.961,43.427,61.4,36.417,72.1Z"/></g></g></svg>