<svg xmlns="http://www.w3.org/2000/svg" viewBox="0 0 50.08 47.04"><defs><style>.cls-1{fill:#f27961;}</style></defs><title>double_scroll_up</title><g id="Capa_2" data-name="Capa 2"><g id="Capa_1-2" data-name="Capa 1"><path class="cls-1" d="M48.08,27.04a1.99,1.99,0,0,1-1.414-.586L25.04,4.828,3.414,26.454A2,2,0,0,1,.586,23.626L23.626.586a2,2,0,0,1,2.828,0l23.04,23.04A2,2,0,0,1,48.08,27.04Z"/><path class="cls-1" d="M48.08,47.04a1.99,1.99,0,0,1-1.414-.586L25.04,24.828,3.414,46.454A2,2,0,0,1,.586,43.626l23.04-23.04a2,2,0,0,1,2.828,0l23.04,23.04A2,2,0,0,1,48.08,47.04Z"/></g></g></svg>