<svg xmlns="http://www.w3.org/2000/svg" viewBox="0 0 114.863 80.365"><defs><style>.cls-1{fill:#f27961;}</style></defs><title>listen_to</title><g id="Capa_2" data-name="Capa 2"><g id="Capa_1-2" data-name="Capa 1"><path class="cls-1" d="M24.615,78.649a13.172,13.172,0,0,1-9.22-3.572,18.057,18.057,0,0,1-5.271-12.769,2,2,0,0,1,4,0,14.145,14.145,0,0,0,4.009,9.853,9.3,9.3,0,0,0,7.229,2.464c6.659-.421,8.378-5.071,10.844-13.254.671-2.23,1.366-4.535,2.266-6.873A53.354,53.354,0,0,1,43.947,44.28c2.787-4.339,5.194-8.086,5.909-14.758a21.972,21.972,0,0,0-5.982-17.413c-3.071-3.181-8.584-6.84-17.42-6.2-9.268.668-14.621,5.175-17.48,8.838A23.554,23.554,0,0,0,4.323,33a2,2,0,0,1-3.941.691,27.618,27.618,0,0,1,5.439-21.4c3.357-4.3,9.612-9.593,20.346-10.366,8.095-.589,15.4,2.048,20.584,7.413a26.01,26.01,0,0,1,7.082,20.616c-.816,7.614-3.587,11.928-6.52,16.5a50.07,50.07,0,0,0-5.108,9.491c-.846,2.2-1.519,4.432-2.169,6.592C37.743,70.133,35.372,78,25.614,78.617Q25.11,78.649,24.615,78.649Z"/><path class="cls-1" d="M25.68,60.368a2,2,0,0,1-2-2c0-9.226-3.621-13.882-6.814-17.989-2.495-3.208-4.85-6.237-4.85-10.645,0-9.618,6.441-16.081,16.028-16.081A14.543,14.543,0,0,1,42.3,25.606c.859,5.113-.916,9.252-2.648,12.731a2,2,0,0,1-3.581-1.784C37.593,33.5,39.02,30.2,38.36,26.269a10.507,10.507,0,0,0-10.316-8.616c-7.307,0-12.028,4.742-12.028,12.081,0,3.036,1.769,5.31,4.007,8.189,3.411,4.388,7.657,9.847,7.657,20.445A2,2,0,0,1,25.68,60.368Z"/><path class="cls-1" d="M82.341,80.365a1.979,1.979,0,0,1-1.2-.4c-.737-.555-18.057-13.9-18.057-39.662S80.39.978,81.126.413a2,2,0,0,1,2.437,3.172A48.757,48.757,0,0,0,67.084,40.3,47.963,47.963,0,0,0,83.55,76.771a2,2,0,0,1-1.209,3.594Z"/><path class="cls-1" d="M97.182,69.9a1.978,1.978,0,0,1-1.2-.4A37.682,37.682,0,0,1,82.656,40.269,38.256,38.256,0,0,1,95.968,10.874a2,2,0,0,1,2.439,3.171h0A34.861,34.861,0,0,0,86.656,40.269,34.29,34.29,0,0,0,98.393,66.31,2,2,0,0,1,97.182,69.9Z"/><path class="cls-1" d="M112.858,61.628a1.982,1.982,0,0,1-1.2-.4,26.685,26.685,0,0,1-9.454-20.688,27.087,27.087,0,0,1,9.439-20.8,2,2,0,0,1,2.44,3.17,23.044,23.044,0,0,0-7.879,17.628,22.65,22.65,0,0,0,7.866,17.5,2,2,0,0,1-1.214,3.593Z"/></g></g></svg>