<svg xmlns="http://www.w3.org/2000/svg" viewBox="0 0 79.994 80.063"><defs><style>.cls-1{fill:#f27961;}</style></defs><title>mouse_select</title><g id="Capa_2" data-name="Capa 2"><g id="Capa_1-2" data-name="Capa 1"><path class="cls-1" d="M46.445,80.063h-.053a2,2,0,0,1-1.818-1.292L25.3,27.8a2,2,0,0,1,2.582-2.576L78.706,44.571a2,2,0,0,1,.086,3.7L65.838,53.912l11.43,11.861a2,2,0,0,1-.06,2.836l-9.1,8.663a2,2,0,0,1-2.79-.03l-11.362-11.3L48.275,78.868A2,2,0,0,1,46.445,80.063ZM53.3,60.468a2,2,0,0,1,1.41.582L66.762,73.034l6.23-5.934L60.96,54.615a2,2,0,0,1,.642-3.222l11.1-4.829L30.611,30.542,46.584,72.777l4.888-11.114a2,2,0,0,1,1.459-1.16A1.952,1.952,0,0,1,53.3,60.468Z"/><path class="cls-1" d="M9.838,49.682a2,2,0,0,1-1.414-3.414l6.024-6.024a2,2,0,0,1,2.828,2.828L11.252,49.1A1.99,1.99,0,0,1,9.838,49.682Z"/><path class="cls-1" d="M41.658,17.862a2,2,0,0,1-1.414-3.414l6.024-6.024A2,2,0,1,1,49.1,11.252l-6.024,6.024A1.99,1.99,0,0,1,41.658,17.862Z"/><path class="cls-1" d="M15.862,17.862a1.99,1.99,0,0,1-1.414-.586L8.424,11.252a2,2,0,0,1,2.828-2.828l6.024,6.024a2,2,0,0,1-1.414,3.414Z"/><path class="cls-1" d="M10.519,30.76H2a2,2,0,0,1,0-4h8.519a2,2,0,1,1,0,4Z"/><path class="cls-1" d="M28.76,12.519a2,2,0,0,1-2-2V2a2,2,0,0,1,4,0v8.519A2,2,0,0,1,28.76,12.519Z"/></g></g></svg>