<svg xmlns="http://www.w3.org/2000/svg" viewBox="0 0 89.276 80.495"><defs><style>.cls-1{fill:#f27961;}</style></defs><title>mouse_scroll</title><g id="Capa_2" data-name="Capa 2"><g id="Capa_1-2" data-name="Capa 1"><path class="cls-1" d="M26.871,80.5A26.9,26.9,0,0,1,0,53.625V26.871a26.871,26.871,0,0,1,53.742,0V53.625A26.9,26.9,0,0,1,26.871,80.5ZM26.871,4A22.9,22.9,0,0,0,4,26.871V53.625a22.871,22.871,0,0,0,45.742,0V26.871A22.9,22.9,0,0,0,26.871,4Z"/><path class="cls-1" d="M26.871,39.23a2,2,0,0,1-2-2V18.6a2,2,0,0,1,4,0V37.23A2,2,0,0,1,26.871,39.23Z"/><path class="cls-1" d="M64.425,15.426a2,2,0,0,0,1.414-.586L73.85,6.829V32.672a2,2,0,0,0,4,0V6.828l8.012,8.012a2,2,0,0,0,2.828-2.828L77.265.587a2,2,0,0,0-2.83,0L63.011,12.012a2,2,0,0,0,1.414,3.414Z"/><path class="cls-1" d="M85.862,65.655,77.85,73.667V47.823a2,2,0,0,0-4,0V73.667l-8.011-8.012a2,2,0,1,0-2.828,2.828L74.435,79.908a2.018,2.018,0,0,0,.3.249c.027.018.057.029.084.046a2.015,2.015,0,0,0,.26.138c.038.016.079.023.118.037a1.831,1.831,0,0,0,.255.077,1.97,1.97,0,0,0,.79,0,1.791,1.791,0,0,0,.255-.077c.039-.014.08-.021.119-.037a2.071,2.071,0,0,0,.259-.138c.027-.017.057-.028.084-.046a2.018,2.018,0,0,0,.3-.249L88.69,68.483a2,2,0,0,0-2.828-2.828Z"/></g></g></svg>