<svg xmlns="http://www.w3.org/2000/svg" viewBox="0 0 50.08 65.852"><defs><style>.cls-1{fill:#f27961;}</style></defs><title>scroll_up</title><g id="Capa_2" data-name="Capa 2"><g id="Capa_1-2" data-name="Capa 1"><path class="cls-1" d="M49.494,23.625,26.455.586a1.941,1.941,0,0,0-.306-.25C26.1.3,26.044.279,25.992.25a2.073,2.073,0,0,0-.187-.1,1.869,1.869,0,0,0-.2-.064c-.056-.016-.11-.038-.168-.049a1.99,1.99,0,0,0-.784,0,1.621,1.621,0,0,0-.168.05,1.863,1.863,0,0,0-.205.063,1.853,1.853,0,0,0-.187.1,1.586,1.586,0,0,0-.157.085,1.988,1.988,0,0,0-.306.25L.586,23.625a2,2,0,1,0,2.828,2.828L23.04,6.827V63.852a2,2,0,1,0,4,0V6.827L46.666,26.453a2,2,0,1,0,2.828-2.828Z"/></g></g></svg>