<svg width="109" height="109" viewBox="0 0 109 109" fill="none" xmlns="http://www.w3.org/2000/svg">
<circle cx="54.5" cy="54.5" r="54.5" fill="black" fill-opacity="0.1"/>
<path d="M78.6257 77.332C74.8493 77.332 71.8281 74.2711 71.8281 70.4448V56.8618C71.8281 53.0356 74.8493 49.9746 78.6257 49.9746C82.4021 49.9746 85.4232 53.0356 85.4232 56.8618V70.4448C85.4232 74.4624 82.4021 77.332 78.6257 77.332Z" stroke="white" stroke-width="2" stroke-miterlimit="10" stroke-linecap="round" stroke-linejoin="round"/>
<path d="M31.7976 77.332C28.0211 77.332 25 74.2711 25 70.4448V56.8618C25 53.0356 28.0211 49.9746 31.7976 49.9746C35.574 49.9746 38.5951 53.0356 38.5951 56.8618V70.4448C38.4063 74.4624 35.3852 77.332 31.7976 77.332Z" stroke="white" stroke-width="2" stroke-miterlimit="10" stroke-linecap="round" stroke-linejoin="round"/>
<path d="M25 57.0533C25 40.0266 35.0075 23 55.2114 23C75.4152 23 85.4227 40.0266 85.4227 57.0533" stroke="white" stroke-width="2" stroke-miterlimit="10" stroke-linecap="round" stroke-linejoin="round"/>
</svg>
