<svg width="109" height="109" viewBox="0 0 109 109" fill="none" xmlns="http://www.w3.org/2000/svg">
<circle cx="54.5" cy="54.5" r="54.5" fill="black" fill-opacity="0.1"/>
<path d="M46.623 79.8172C37.3142 79.8172 29.8672 72.3017 29.8672 62.9074V45.9976C29.8672 36.6033 37.3142 29.0879 46.623 29.0879C55.9318 29.0879 63.3788 36.6033 63.3788 45.9976V62.9074C63.3788 72.3017 55.9318 79.8172 46.623 79.8172Z" stroke="white" stroke-width="2.2" stroke-miterlimit="10" stroke-linecap="round" stroke-linejoin="round"/>
<path d="M46.623 38.7656V51.5767" stroke="white" stroke-width="2.2" stroke-linecap="round"/>
<path d="M75.9063 28.3837C75.5158 27.9932 74.8826 27.9932 74.4921 28.3837L68.1282 34.7477C67.7376 35.1382 67.7376 35.7714 68.1282 36.1619C68.5187 36.5524 69.1518 36.5524 69.5424 36.1619L75.1992 30.505L80.8561 36.1619C81.2466 36.5524 81.8798 36.5524 82.2703 36.1619C82.6608 35.7714 82.6608 35.1382 82.2703 34.7477L75.9063 28.3837ZM74.1992 48.6996C74.1992 49.2519 74.6469 49.6996 75.1992 49.6996C75.7515 49.6996 76.1992 49.2519 76.1992 48.6996H74.1992ZM74.1992 29.0908V48.6996H76.1992V29.0908H74.1992Z" fill="white"/>
<path d="M75.9063 80.7813C75.5158 81.1718 74.8826 81.1718 74.4921 80.7813L68.1282 74.4174C67.7376 74.0268 67.7376 73.3937 68.1282 73.0032C68.5187 72.6126 69.1518 72.6126 69.5424 73.0032L75.1992 78.66L80.8561 73.0032C81.2466 72.6126 81.8798 72.6126 82.2703 73.0032C82.6608 73.3937 82.6608 74.0268 82.2703 74.4174L75.9063 80.7813ZM74.1992 60.4655C74.1992 59.9132 74.6469 59.4655 75.1992 59.4655C75.7515 59.4655 76.1992 59.9132 76.1992 60.4655H74.1992ZM74.1992 80.0742V60.4655H76.1992V80.0742H74.1992Z" fill="white"/>
</svg>
