<svg width="1920" height="113" viewBox="0 0 1920 113" fill="none" xmlns="http://www.w3.org/2000/svg">
<path fill-rule="evenodd" clip-rule="evenodd" d="M-44 8.32349L-11.045 19.9542C21.91 31.5849 89.6508 54.8464 155.561 49.031C221.471 43.2157 289.212 8.32349 355.122 11.2312C422.862 14.1389 488.773 54.8464 554.682 72.2925C622.423 89.7386 688.333 83.9232 754.243 72.2925C821.984 60.6617 887.894 43.2157 953.804 25.7696C1021.55 8.32349 1087.45 -9.12259 1155.2 5.41581C1221.11 19.9542 1287.02 66.4771 1354.76 81.0155C1420.67 95.5539 1486.58 78.1078 1554.32 72.2925C1620.23 66.4771 1686.14 72.2925 1753.88 60.6617C1819.79 49.031 1887.53 19.9542 1953.44 14.1389C2019.35 8.32349 2087.09 25.7696 2120.04 34.4926L2153 43.2157V113H2120.04C2087.09 113 2019.35 113 1953.44 113C1887.53 113 1819.79 113 1753.88 113C1686.14 113 1620.23 113 1554.32 113C1486.58 113 1420.67 113 1354.76 113C1287.02 113 1221.11 113 1155.2 113C1087.45 113 1021.55 113 953.804 113C887.894 113 821.984 113 754.243 113C688.333 113 622.423 113 554.682 113C488.773 113 422.862 113 355.122 113C289.212 113 221.471 113 155.561 113C89.6508 113 21.91 113 -11.045 113H-44V8.32349Z" fill="#4a60cf"/>
</svg>
