<svg width="1920" height="137" viewBox="0 0 1920 137" fill="none" xmlns="http://www.w3.org/2000/svg">
<path fill-rule="evenodd" clip-rule="evenodd" d="M-5 94.3819L21.3083 89.1385C49.4958 83.895 102.113 73.4081 156.608 65.543C209.225 57.6778 263.721 52.4344 316.338 62.9213C370.833 73.4081 425.329 99.6253 477.946 112.734C532.442 125.843 585.058 125.843 639.554 110.112C692.171 94.3819 746.667 62.9213 801.163 57.6778C853.779 52.4344 908.275 73.4081 960.892 81.2733C1015.39 89.1385 1068 83.895 1122.5 70.7864C1177 57.6778 1229.61 36.7041 1284.11 34.0824C1336.73 31.4606 1391.22 47.1909 1443.84 44.5692C1498.33 41.9475 1552.83 20.9738 1605.45 31.4606C1659.94 41.9475 1712.56 83.895 1767.05 110.112C1819.67 136.329 1874.17 146.816 1928.66 125.843C1981.28 104.869 2035.78 52.4344 2088.39 41.9475C2142.89 31.4606 2195.5 62.9213 2223.69 78.6516L2250 94.3819V0H2223.69C2195.5 0 2142.89 0 2088.39 0C2035.78 0 1981.28 0 1928.66 0C1874.17 0 1819.67 0 1767.05 0C1712.56 0 1659.94 0 1605.45 0C1552.83 0 1498.33 0 1443.84 0C1391.22 0 1336.73 0 1284.11 0C1229.61 0 1177 0 1122.5 0C1068 0 1015.39 0 960.892 0C908.275 0 853.779 0 801.163 0C746.667 0 692.171 0 639.554 0C585.058 0 532.442 0 477.946 0C425.329 0 370.833 0 316.338 0C263.721 0 209.225 0 156.608 0C102.113 0 49.4958 0 21.3083 0H-5V94.3819Z" fill="#4a60cf"/>
</svg>
