<svg width="2197" height="252" viewBox="0 0 2197 252" fill="none" xmlns="http://www.w3.org/2000/svg">
<path fill-rule="evenodd" clip-rule="evenodd" d="M0 5.37017L32.955 12.8741C65.91 20.378 133.651 35.3859 199.561 31.6339C265.471 27.882 333.212 5.37017 399.122 7.24615C466.862 9.12213 532.772 35.3859 598.682 46.6418C666.423 57.8977 732.333 54.1457 798.243 46.6418C865.984 39.1379 931.894 27.882 997.804 16.6261C1065.54 5.37017 1131.45 -5.88573 1199.2 3.49418C1265.11 12.8741 1331.02 42.8898 1398.76 52.2698C1464.67 61.6497 1530.58 50.3938 1598.32 46.6418C1664.23 42.8898 1730.14 46.6418 1797.88 39.1379C1863.79 31.6339 1931.53 12.8741 1997.44 9.12213C2063.35 5.37017 2131.09 16.6261 2164.04 22.254L2197 27.882V72.9056H2164.04C2131.09 72.9056 2063.35 72.9056 1997.44 72.9056C1931.53 72.9056 1863.79 72.9056 1797.88 72.9056C1730.14 72.9056 1664.23 72.9056 1598.32 72.9056C1530.58 72.9056 1464.67 72.9056 1398.76 72.9056C1331.02 72.9056 1265.11 72.9056 1199.2 72.9056C1131.45 72.9056 1065.54 72.9056 997.804 72.9056C931.894 72.9056 865.984 72.9056 798.243 72.9056C732.333 72.9056 666.423 72.9056 598.682 72.9056C532.772 72.9056 466.862 72.9056 399.122 72.9056C333.212 72.9056 265.471 72.9056 199.561 72.9056C133.651 72.9056 65.91 72.9056 32.955 72.9056H0V5.37017Z" fill="#4A5CCF"/>
<rect y="72.748" width="2197" height="179.252" fill="url(#paint0_linear_1490_11066)"/>
<rect y="65.6152" width="2197" height="76.5507" fill="url(#paint1_radial_1490_11066)"/>
<path fill-rule="evenodd" clip-rule="evenodd" d="M0 119.092L32.955 120.641C65.91 122.189 133.651 125.286 199.561 124.511C265.471 123.737 333.212 119.092 399.122 119.479C466.862 119.867 532.772 125.286 598.682 127.608C666.423 129.93 732.333 129.156 798.243 127.608C865.984 126.06 931.894 123.737 997.804 121.415C1065.54 119.092 1131.45 116.77 1199.2 118.705C1265.11 120.641 1331.02 126.834 1398.76 128.769C1464.67 130.705 1530.58 128.382 1598.32 127.608C1664.23 126.834 1730.14 127.608 1797.88 126.06C1863.79 124.511 1931.53 120.641 1997.44 119.867C2063.35 119.092 2131.09 121.415 2164.04 122.576L2197 123.737V133.027H2164.04C2131.09 133.027 2063.35 133.027 1997.44 133.027C1931.53 133.027 1863.79 133.027 1797.88 133.027C1730.14 133.027 1664.23 133.027 1598.32 133.027C1530.58 133.027 1464.67 133.027 1398.76 133.027C1331.02 133.027 1265.11 133.027 1199.2 133.027C1131.45 133.027 1065.54 133.027 997.804 133.027C931.894 133.027 865.984 133.027 798.243 133.027C732.333 133.027 666.423 133.027 598.682 133.027C532.772 133.027 466.862 133.027 399.122 133.027C333.212 133.027 265.471 133.027 199.561 133.027C133.651 133.027 65.91 133.027 32.955 133.027H0V119.092Z" fill="#4A5CCF"/>
<rect y="132.822" width="2197" height="76.6363" fill="url(#paint2_linear_1490_11066)"/>
<rect y="105.199" width="2197" height="132.848" fill="url(#paint3_linear_1490_11066)"/>
<defs>
<linearGradient id="paint0_linear_1490_11066" x1="1098.5" y1="42.0802" x2="1098.5" y2="252" gradientUnits="userSpaceOnUse">
<stop offset="0.136908" stop-color="#4A5CCF"/>
<stop offset="0.586188" stop-color="#4A5CCF"/>
<stop offset="1" stop-color="#4A5CCF" stop-opacity="0"/>
</linearGradient>
<radialGradient id="paint1_radial_1490_11066" cx="0" cy="0" r="1" gradientUnits="userSpaceOnUse" gradientTransform="translate(1099 65.6152) rotate(90.3742) scale(76.5523 2196.96)">
<stop offset="0.197917" stop-color="#4A5CCF"/>
<stop offset="0.473958" stop-color="#4A5CCF" stop-opacity="0.9"/>
</radialGradient>
<linearGradient id="paint2_linear_1490_11066" x1="1098.5" y1="119.711" x2="1098.5" y2="209.459" gradientUnits="userSpaceOnUse">
<stop offset="0.136908" stop-color="#4A5CCF"/>
<stop offset="0.586188" stop-color="#4A5CCF"/>
<stop offset="1" stop-color="#4A5CCF" stop-opacity="0"/>
</linearGradient>
<linearGradient id="paint3_linear_1490_11066" x1="1099.5" y1="-27.6489" x2="1099.04" y2="238.048" gradientUnits="userSpaceOnUse">
<stop offset="0.0749499" stop-color="#4A5CCF"/>
<stop offset="0.780774" stop-color="#4A5CCF" stop-opacity="0.99"/>
<stop offset="1" stop-color="#4A5CCF" stop-opacity="0"/>
</linearGradient>
</defs>
</svg>
