<svg width="2197" height="538" viewBox="0 0 2197 538" fill="none" xmlns="http://www.w3.org/2000/svg">
<path fill-rule="evenodd" clip-rule="evenodd" d="M0 3.75662L32.955 9.00588C65.91 14.2551 133.651 24.7537 199.561 22.129C265.471 19.5044 333.212 3.75662 399.122 5.06894C466.862 6.38125 532.772 24.7537 598.682 32.6276C666.423 40.5015 732.333 37.8768 798.243 32.6276C865.984 27.3783 931.894 19.5044 997.804 11.6305C1065.54 3.75662 1131.45 -4.11728 1199.2 2.4443C1265.11 9.00588 1331.02 30.0029 1398.76 36.5645C1464.67 43.1261 1530.58 35.2522 1598.32 32.6276C1664.23 30.0029 1730.14 32.6276 1797.88 27.3783C1863.79 22.129 1931.53 9.00588 1997.44 6.38125C2063.35 3.75662 2131.09 11.6305 2164.04 15.5675L2197 19.5044V51H2164.04C2131.09 51 2063.35 51 1997.44 51C1931.53 51 1863.79 51 1797.88 51C1730.14 51 1664.23 51 1598.32 51C1530.58 51 1464.67 51 1398.76 51C1331.02 51 1265.11 51 1199.2 51C1131.45 51 1065.54 51 997.804 51C931.894 51 865.984 51 798.243 51C732.333 51 666.423 51 598.682 51C532.772 51 466.862 51 399.122 51C333.212 51 265.471 51 199.561 51C133.651 51 65.91 51 32.955 51H0V3.75662Z" fill="#4A5CCF"/>
<rect y="50" width="2197" height="488" fill="#4A5CCF"/>
</svg>
