<svg width="2197" height="294" viewBox="0 0 2197 294" fill="none" xmlns="http://www.w3.org/2000/svg">
<path fill-rule="evenodd" clip-rule="evenodd" d="M0 207.72L32.955 204.161C65.91 200.602 133.651 193.484 199.561 195.264C265.471 197.043 333.212 207.72 399.122 206.83C466.862 205.94 532.772 193.484 598.682 188.146C666.423 182.807 732.333 184.587 798.243 188.146C865.984 191.705 931.894 197.043 997.804 202.381C1065.54 207.72 1131.45 213.058 1199.2 208.609C1265.11 204.161 1331.02 189.925 1398.76 185.477C1464.67 181.028 1530.58 186.366 1598.32 188.146C1664.23 189.925 1730.14 188.146 1797.88 191.705C1863.79 195.264 1931.53 204.161 1997.44 205.94C2063.35 207.72 2131.09 202.381 2164.04 199.712L2197 197.043V175.69H2164.04C2131.09 175.69 2063.35 175.69 1997.44 175.69C1931.53 175.69 1863.79 175.69 1797.88 175.69C1730.14 175.69 1664.23 175.69 1598.32 175.69C1530.58 175.69 1464.67 175.69 1398.76 175.69C1331.02 175.69 1265.11 175.69 1199.2 175.69C1131.45 175.69 1065.54 175.69 997.804 175.69C931.894 175.69 865.984 175.69 798.243 175.69C732.333 175.69 666.423 175.69 598.682 175.69C532.772 175.69 466.862 175.69 399.122 175.69C333.212 175.69 265.471 175.69 199.561 175.69C133.651 175.69 65.91 175.69 32.955 175.69H0V207.72Z" fill="#4A5CCF"/>
<rect width="2197" height="176.156" transform="matrix(1 0 0 -1 0 176.156)" fill="url(#paint0_linear_1488_11065)"/>
<rect width="2197" height="116.108" transform="matrix(1 0 0 -1 0 224.13)" fill="url(#paint1_radial_1488_11065)"/>
<path fill-rule="evenodd" clip-rule="evenodd" d="M0 270.453L25.6317 267.556C53.0942 264.659 104.357 258.864 157.452 254.519C208.715 250.173 261.809 247.276 313.073 253.07C366.167 258.864 419.261 273.35 470.524 280.593C523.618 287.836 574.882 287.836 627.976 279.145C679.239 270.453 732.333 253.07 785.427 250.173C836.691 247.276 889.785 258.864 941.048 263.21C994.143 267.556 1045.41 264.659 1098.5 257.416C1151.59 250.173 1202.86 238.584 1255.95 237.135C1307.21 235.687 1360.31 244.378 1411.57 242.93C1464.67 241.481 1517.76 229.892 1569.02 235.687C1622.12 241.481 1673.38 264.659 1726.48 279.145C1777.74 293.631 1830.83 299.425 1883.93 287.836C1935.19 276.248 1988.29 247.276 2039.55 241.481C2092.64 235.687 2143.91 253.07 2171.37 261.762L2197 270.453V201.696L2171.37 191.655C2143.91 191.655 2092.64 179.682 2039.55 179.682C1988.29 179.682 1935.19 191.655 1883.93 191.655C1830.83 191.655 1777.74 179.682 1726.48 179.682C1673.38 179.682 1611.09 179.682 1558 179.682C1506.74 179.682 1453.64 196.289 1400.55 196.289C1349.29 196.289 1307.21 191.655 1255.95 191.655C1202.86 191.655 1151.59 201.696 1098.5 201.696C1081.5 191.655 994.143 191.655 941.048 191.655C889.785 191.655 836.691 191.655 785.427 191.655C732.333 191.655 679.239 201.696 627.976 201.696C574.882 201.696 557.594 179.682 504.5 179.682C453.237 179.682 366.167 151.479 313.073 151.479C261.809 151.479 208.715 169.529 157.452 169.529C104.357 169.529 79.9625 191.655 52.5 191.655L0 201.696V270.453Z" fill="#4A5CCF"/>
<rect width="2197" height="140.286" fill="url(#paint2_linear_1488_11065)"/>
<defs>
<linearGradient id="paint0_linear_1488_11065" x1="1098.5" y1="-30.138" x2="1098.5" y2="176.156" gradientUnits="userSpaceOnUse">
<stop offset="0.136908" stop-color="#4A5CCF"/>
<stop offset="0.586188" stop-color="#4A5CCF"/>
<stop offset="1" stop-color="#4A5CCF" stop-opacity="0"/>
</linearGradient>
<radialGradient id="paint1_radial_1488_11065" cx="0" cy="0" r="1" gradientUnits="userSpaceOnUse" gradientTransform="translate(1099 1.8436e-06) rotate(90.2467) scale(116.109 2196.99)">
<stop stop-color="#4A5CCF"/>
<stop offset="0.473958" stop-color="#4A5CCF"/>
<stop offset="1" stop-color="#4A5CCF" stop-opacity="0.9"/>
</radialGradient>
<linearGradient id="paint2_linear_1488_11065" x1="1099.5" y1="-140.286" x2="1098.99" y2="140.287" gradientUnits="userSpaceOnUse">
<stop offset="0.524556" stop-color="#4A5CCF" stop-opacity="0"/>
<stop offset="0.707519" stop-color="#4A5CCF" stop-opacity="0.74"/>
<stop offset="1" stop-color="#4A5CCF"/>
</linearGradient>
</defs>
</svg>
