<svg width="2197" height="259" viewBox="0 0 2197 259" fill="none" xmlns="http://www.w3.org/2000/svg">
<path fill-rule="evenodd" clip-rule="evenodd" d="M0 182.285L32.955 179.162C65.91 176.039 133.651 169.793 199.561 171.355C265.471 172.916 333.212 182.285 399.122 181.505C466.862 180.724 532.772 169.793 598.682 165.108C666.423 160.424 732.333 161.985 798.243 165.108C865.984 168.231 931.894 172.916 997.804 177.601C1065.54 182.285 1131.45 186.97 1199.2 183.066C1265.11 179.162 1331.02 166.67 1398.76 162.766C1464.67 158.862 1530.58 163.547 1598.32 165.108C1664.23 166.67 1730.14 165.108 1797.88 168.231C1863.79 171.355 1931.53 179.162 1997.44 180.724C2063.35 182.285 2131.09 177.601 2164.04 175.258L2197 172.916V154.177H2164.04C2131.09 154.177 2063.35 154.177 1997.44 154.177C1931.53 154.177 1863.79 154.177 1797.88 154.177C1730.14 154.177 1664.23 154.177 1598.32 154.177C1530.58 154.177 1464.67 154.177 1398.76 154.177C1331.02 154.177 1265.11 154.177 1199.2 154.177C1131.45 154.177 1065.54 154.177 997.804 154.177C931.894 154.177 865.984 154.177 798.243 154.177C732.333 154.177 666.423 154.177 598.682 154.177C532.772 154.177 466.862 154.177 399.122 154.177C333.212 154.177 265.471 154.177 199.561 154.177C133.651 154.177 65.91 154.177 32.955 154.177H0V182.285Z" fill="#4A5CCF"/>
<rect width="2197" height="154.586" transform="matrix(1 0 0 -1 0 154.587)" fill="url(#paint0_linear_1488_11065)"/>
<rect width="2197" height="101.891" transform="matrix(1 0 0 -1 0 196.686)" fill="url(#paint1_radial_1488_11065)"/>
<path fill-rule="evenodd" clip-rule="evenodd" d="M0 237.337L25.6317 234.795C53.0942 232.252 104.357 227.167 157.452 223.354C208.715 219.54 261.809 216.998 313.073 222.082C366.167 227.167 419.261 239.88 470.524 246.236C523.618 252.592 574.882 252.592 627.976 244.964C679.239 237.337 732.333 222.082 785.427 219.54C836.691 216.998 889.785 227.167 941.048 230.981C994.143 234.795 1045.41 232.252 1098.5 225.896C1151.59 219.54 1202.86 209.37 1255.95 208.099C1307.21 206.828 1360.31 214.455 1411.57 213.184C1464.67 211.913 1517.76 201.743 1569.02 206.828C1622.12 211.913 1673.38 232.252 1726.48 244.964C1777.74 257.677 1830.83 262.762 1883.93 252.592C1935.19 242.422 1988.29 216.998 2039.55 211.913C2092.64 206.828 2143.91 222.082 2171.37 229.71L2197 237.337V176.999L2171.37 168.187C2143.91 168.187 2092.64 157.681 2039.55 157.681C1988.29 157.681 1935.19 168.187 1883.93 168.187C1830.83 168.187 1777.74 157.681 1726.48 157.681C1673.38 157.681 1611.09 157.681 1558 157.681C1506.74 157.681 1453.64 172.255 1400.55 172.255C1349.29 172.255 1307.21 168.187 1255.95 168.187C1202.86 168.187 1151.59 176.999 1098.5 176.999C1081.5 168.187 994.143 168.187 941.048 168.187C889.785 168.187 836.691 168.187 785.427 168.187C732.333 168.187 679.239 176.999 627.976 176.999C574.882 176.999 557.594 157.681 504.5 157.681C453.237 157.681 366.167 132.931 313.073 132.931C261.809 132.931 208.715 148.771 157.452 148.771C104.357 148.771 79.9625 168.187 52.5 168.187L0 176.999V237.337Z" fill="#4A5CCF"/>
<rect width="2197" height="123.108" fill="url(#paint2_linear_1488_11065)"/>
<defs>
<linearGradient id="paint0_linear_1488_11065" x1="1098.5" y1="-26.4477" x2="1098.5" y2="154.586" gradientUnits="userSpaceOnUse">
<stop offset="0.136908" stop-color="#4A5CCF"/>
<stop offset="0.586188" stop-color="#4A5CCF"/>
<stop offset="1" stop-color="#4A5CCF" stop-opacity="0"/>
</linearGradient>
<radialGradient id="paint1_radial_1488_11065" cx="0" cy="0" r="1" gradientUnits="userSpaceOnUse" gradientTransform="translate(1099 1.61785e-06) rotate(90.2812) scale(101.892 2196.98)">
<stop stop-color="#4A5CCF"/>
<stop offset="0.473958" stop-color="#4A5CCF"/>
<stop offset="1" stop-color="#4A5CCF" stop-opacity="0.9"/>
</radialGradient>
<linearGradient id="paint2_linear_1488_11065" x1="1099.5" y1="-123.108" x2="1099.11" y2="123.109" gradientUnits="userSpaceOnUse">
<stop offset="0.524556" stop-color="#4A5CCF" stop-opacity="0"/>
<stop offset="0.707519" stop-color="#4A5CCF" stop-opacity="0.74"/>
<stop offset="1" stop-color="#4A5CCF"/>
</linearGradient>
</defs>
</svg>
