<svg width="2197" height="251" viewBox="0 0 2197 251" fill="none" xmlns="http://www.w3.org/2000/svg">
<path fill-rule="evenodd" clip-rule="evenodd" d="M0 2.99641L32.955 7.1834C65.91 11.3704 133.651 19.7444 199.561 17.6509C265.471 15.5574 333.212 2.99641 399.122 4.04315C466.862 5.0899 532.772 19.7444 598.682 26.0248C666.423 32.3053 732.333 30.2118 798.243 26.0248C865.984 21.8379 931.894 15.5574 997.804 9.27689C1065.54 2.99641 1131.45 -3.28408 1199.2 1.94966C1265.11 7.1834 1331.02 23.9314 1398.76 29.1651C1464.67 34.3988 1530.58 28.1183 1598.32 26.0248C1664.23 23.9314 1730.14 26.0248 1797.88 21.8379C1863.79 17.6509 1931.53 7.1834 1997.44 5.0899C2063.35 2.99641 2131.09 9.27689 2164.04 12.4171L2197 15.5574V40.6793H2164.04C2131.09 40.6793 2063.35 40.6793 1997.44 40.6793C1931.53 40.6793 1863.79 40.6793 1797.88 40.6793C1730.14 40.6793 1664.23 40.6793 1598.32 40.6793C1530.58 40.6793 1464.67 40.6793 1398.76 40.6793C1331.02 40.6793 1265.11 40.6793 1199.2 40.6793C1131.45 40.6793 1065.54 40.6793 997.804 40.6793C931.894 40.6793 865.984 40.6793 798.243 40.6793C732.333 40.6793 666.423 40.6793 598.682 40.6793C532.772 40.6793 466.862 40.6793 399.122 40.6793C333.212 40.6793 265.471 40.6793 199.561 40.6793C133.651 40.6793 65.91 40.6793 32.955 40.6793H0V2.99641Z" fill="#4A5CCF"/>
<rect y="40.7188" width="2197" height="210.282" fill="url(#paint0_linear_1490_11066)"/>
<rect y="32.3516" width="2197" height="89.802" fill="url(#paint1_radial_1490_11066)"/>
<path fill-rule="evenodd" clip-rule="evenodd" d="M0 86.7206L32.955 88.8589C65.91 90.9971 133.651 95.2735 199.561 94.2044C265.471 93.1353 333.212 86.7206 399.122 87.2552C466.862 87.7898 532.772 95.2735 598.682 98.4809C666.423 101.688 732.333 100.619 798.243 98.4809C865.984 96.3426 931.894 93.1353 997.804 89.928C1065.54 86.7206 1131.45 83.5133 1199.2 86.1861C1265.11 88.8589 1331.02 97.4118 1398.76 100.085C1464.67 102.757 1530.58 99.55 1598.32 98.4809C1664.23 97.4118 1730.14 98.4809 1797.88 96.3426C1863.79 94.2044 1931.53 88.8589 1997.44 87.7898C2063.35 86.7206 2131.09 89.928 2164.04 91.5316L2197 93.1353V105.965H2164.04C2131.09 105.965 2063.35 105.965 1997.44 105.965C1931.53 105.965 1863.79 105.965 1797.88 105.965C1730.14 105.965 1664.23 105.965 1598.32 105.965C1530.58 105.965 1464.67 105.965 1398.76 105.965C1331.02 105.965 1265.11 105.965 1199.2 105.965C1131.45 105.965 1065.54 105.965 997.804 105.965C931.894 105.965 865.984 105.965 798.243 105.965C732.333 105.965 666.423 105.965 598.682 105.965C532.772 105.965 466.862 105.965 399.122 105.965C333.212 105.965 265.471 105.965 199.561 105.965C133.651 105.965 65.91 105.965 32.955 105.965H0V86.7206Z" fill="#4A5CCF"/>
<rect y="105.683" width="2197" height="105.836" fill="url(#paint2_linear_1490_11066)"/>
<rect y="67.5342" width="2197" height="183.466" fill="url(#paint3_linear_1490_11066)"/>
<defs>
<linearGradient id="paint0_linear_1490_11066" x1="1098.5" y1="4.74214" x2="1098.5" y2="251.001" gradientUnits="userSpaceOnUse">
<stop offset="0.136908" stop-color="#4A5CCF"/>
<stop offset="0.586188" stop-color="#4A5CCF"/>
<stop offset="1" stop-color="#4A5CCF" stop-opacity="0"/>
</linearGradient>
<radialGradient id="paint1_radial_1490_11066" cx="0" cy="0" r="1" gradientUnits="userSpaceOnUse" gradientTransform="translate(1099 32.3516) rotate(90.319) scale(89.8034 2196.98)">
<stop offset="0.197917" stop-color="#4A5CCF"/>
<stop offset="0.473958" stop-color="#4A5CCF" stop-opacity="0.9"/>
</radialGradient>
<linearGradient id="paint2_linear_1490_11066" x1="1098.5" y1="87.5754" x2="1098.5" y2="211.519" gradientUnits="userSpaceOnUse">
<stop offset="0.136908" stop-color="#4A5CCF"/>
<stop offset="0.586188" stop-color="#4A5CCF"/>
<stop offset="1" stop-color="#4A5CCF" stop-opacity="0"/>
</linearGradient>
<linearGradient id="paint3_linear_1490_11066" x1="1099.5" y1="-115.932" x2="1098.63" y2="251" gradientUnits="userSpaceOnUse">
<stop offset="0.0749499" stop-color="#4A5CCF"/>
<stop offset="0.780774" stop-color="#4A5CCF" stop-opacity="0.99"/>
<stop offset="1" stop-color="#4A5CCF" stop-opacity="0"/>
</linearGradient>
</defs>
</svg>
